<?xml version="1.0" encoding="UTF-8" standalone="no"?>
<svg
   id="f6ed740f-4c53-497f-bfef-ebd7a0ab3453"
   data-name="Layer 1"
   width="1139.07"
   height="783.9"
   viewBox="0 0 1139.07 783.9"
   version="1.1"
   sodipodi:docname="upload.svg"
   inkscape:version="1.1.1 (3bf5ae0d25, 2021-09-20)"
   xmlns:inkscape="http://www.inkscape.org/namespaces/inkscape"
   xmlns:sodipodi="http://sodipodi.sourceforge.net/DTD/sodipodi-0.dtd"
   xmlns:xlink="http://www.w3.org/1999/xlink"
   xmlns="http://www.w3.org/2000/svg"
   xmlns:svg="http://www.w3.org/2000/svg"
   xmlns:rdf="http://www.w3.org/1999/02/22-rdf-syntax-ns#"
   xmlns:cc="http://creativecommons.org/ns#"
   xmlns:dc="http://purl.org/dc/elements/1.1/">
  <g
     id="g2398"
     transform="matrix(1.9387563,0,0,1.8698778,-489.43542,13.517961)">
    <path
       d="m 824,293.65 a 7.55,7.55 0 0 0 1.37,-4.2 c 0,-9.12 -18.58,-16.5 -41.5,-16.5 -22.92,0 -41.5,7.38 -41.5,16.5 a 7.78,7.78 0 0 0 1.71,4.68 c -25.52,2.85 -42.71,8.19 -42.71,14.32 0,9.11 38,16.5 85,16.5 47,0 85,-7.39 85,-16.5 C 871.32,302 852,296.35 824,293.65 Z"
       transform="translate(-30.47,-58.05)"
       fill="#f1592a"
       opacity="0.1"
       id="path14" />
    <path
       d="M 718,257 C 703.65,186.28 642.15,133 567.33,133 c -59.45,0 -110.7,33.82 -136.33,83 -61.5,6.15 -109.67,58.42 -109.67,122 0,67.64 55.34,123 123,123 h 266.5 c 56.37,0 102.5,-46.13 102.5,-102.5 A 101.25,101.25 0 0 0 718,257 Z m -117.88,60.45 v 77.9 h -65.6 v -77.9 h -69.7 L 567.32,215 669.82,317.5 Z"
       transform="translate(-30.47,-58.05)"
       fill="#f1592a"
       id="path64"
       style="fill:url(#linearGradient1139);fill-opacity:1" />
    <path
       d="m 467.08,305.75 c -1,-5.71 -0.51,-11.86 -3.13,-17 a 3.7,3.7 0 0 0 -1.19,-1.53 4.11,4.11 0 0 0 -2.13,-0.49 c -2.37,-0.09 -4.73,-0.12 -7.1,-0.06 -0.66,0 -1.44,0.1 -1.78,0.68 a 0.72,0.72 0 0 0 -0.09,0.2 c -2.71,-3 -4.76,-6.79 -7.68,-9.59 0.42,-0.14 0.83,-0.27 1.26,-0.38 0,-0.29 -0.1,-0.56 -0.16,-0.84 0,-0.09 -0.05,-0.17 -0.07,-0.25 -0.02,-0.08 -0.09,-0.38 -0.15,-0.57 -0.06,-0.19 -0.06,-0.19 -0.1,-0.28 a 5.52,5.52 0 0 0 -0.18,-0.53 c 0,-0.09 -0.07,-0.18 -0.11,-0.27 l -0.21,-0.53 -0.12,-0.25 c -0.08,-0.18 -0.16,-0.36 -0.25,-0.53 l -0.12,-0.22 c -0.09,-0.19 -0.19,-0.38 -0.29,-0.57 l -0.1,-0.18 c -0.11,-0.2 -0.23,-0.4 -0.34,-0.61 a 0.41,0.41 0 0 1 -0.07,-0.11 c -0.13,-0.23 -0.27,-0.46 -0.41,-0.68 v 0 c -1.14,-1.86 -2.4,-3.69 -3.33,-5.6 -1.63,-3.36 -2.17,-7.15 -3.26,-10.73 -1.09,-3.58 -3,-7.22 -6.24,-8.93 -1.57,-0.8 -3.67,-1.51 -3.82,-3.28 a 3.91,3.91 0 0 1 0.35,-1.65 22.1,22.1 0 0 1 1.63,-3.31 c 0.24,-0.38 0.49,-0.76 0.74,-1.14 l 0.2,-0.27 c 0.2,-0.28 0.41,-0.56 0.62,-0.82 l 0.26,-0.33 c 0.21,-0.26 0.43,-0.5 0.65,-0.75 l 0.27,-0.29 c 0.31,-0.33 0.62,-0.65 0.95,-1 a 2.31,2.31 0 0 0 0.7,-0.89 2.7,2.7 0 0 0 0.05,-1.06 c -0.16,-2.86 1.34,-5.53 3,-7.83 1.66,-2.3 3.62,-4.48 4.57,-7.17 0.11,-0.31 0.2,-0.62 0.28,-0.94 a 2.82,2.82 0 0 0 0.07,-0.31 c 0.05,-0.21 0.09,-0.42 0.13,-0.64 l 0.06,-0.36 c 0,-0.2 0.05,-0.4 0.07,-0.59 v -0.39 -0.59 -0.39 c 0,-0.19 0,-0.39 0,-0.59 0,-0.2 0,-0.25 0,-0.38 0,-0.13 0,-0.42 -0.05,-0.63 v -0.34 c 0,-0.24 -0.07,-0.49 -0.1,-0.73 0,-0.08 0,-0.16 0,-0.24 q -0.07,-0.49 -0.18,-1 v 0 a 50,50 0 0 0 -1.84,-6.26 22.37,22.37 0 0 0 -1.52,-3.64 c 0.37,-0.07 0.75,-0.15 1.12,-0.25 a 16.34,16.34 0 0 1 -0.81,-1.42 37.24,37.24 0 0 0 5.11,-11.09 51.33,51.33 0 0 0 1,-8.57 c 0.55,-8.66 1.11,-17.36 0.39,-26 v -0.34 a 21,21 0 0 0 0.06,-5.6 23.52,23.52 0 0 0 -3.14,-10.33 c -1.94,-3.06 -5.14,-5.76 -8.7,-6.12 a 13.76,13.76 0 0 1 -1.94,1.8 7.63,7.63 0 0 1 -2.27,-3.53 19.21,19.21 0 0 0 16.11,-16.82 c 0,-0.31 0.07,-0.63 0.09,-0.94 0,-0.13 0,-0.26 0,-0.39 0,-0.13 0,-0.37 0,-0.55 0,-0.18 0,-0.33 0,-0.5 v -0.41 c 0,-0.19 0,-0.39 0,-0.58 0,-0.19 0,-0.21 0,-0.31 0,-0.1 0,-0.44 -0.06,-0.65 a 1.79,1.79 0 0 0 0,-0.23 l -0.09,-0.7 v -0.15 c 0,-0.25 -0.08,-0.5 -0.13,-0.75 v -0.08 c -0.05,-0.27 -0.11,-0.53 -0.18,-0.8 v 0 a 19.26,19.26 0 0 0 -2.11,-5.18 19.29,19.29 0 0 0 1.52,-5.56 c 0,-0.35 0.07,-0.69 0.09,-1 0.02,-0.31 0,-0.44 0,-0.66 0,-0.22 0,-0.22 0,-0.32 0,-0.29 0,-0.58 0,-0.86 a 0.28,0.28 0 0 1 0,-0.09 19.44,19.44 0 0 0 -5.39,-12.86 11.25,11.25 0 0 0 0.95,-2 v 0 c 0.08,-0.21 0.15,-0.42 0.21,-0.64 v 0 c 0.06,-0.21 0.12,-0.41 0.17,-0.62 v -0.05 l 0.12,-0.57 a 0.3,0.3 0 0 1 0,-0.1 c 0,-0.22 0.07,-0.45 0.1,-0.68 0.03,-0.23 0,-0.47 0.06,-0.7 0,-0.07 0,-0.15 0,-0.22 0,-0.07 0,-0.33 0,-0.49 v -0.24 c 0,-0.16 0,-0.33 0,-0.49 0,-0.16 0,-0.14 0,-0.21 a 11.83,11.83 0 0 0 -23.58,-0.53 12.21,12.21 0 0 0 0.11,3.63 19.35,19.35 0 0 0 -10.73,15.09 19.62,19.62 0 0 0 -0.11,3.24 19.51,19.51 0 0 0 -3,9 v 0 c 0,0.12 0,0.24 0,0.36 0,0.4 -0.05,0.81 -0.05,1.21 a 19.43,19.43 0 0 0 7.47,15.37 13.67,13.67 0 0 0 3.78,4 15.07,15.07 0 0 1 0.61,2.5 7.58,7.58 0 0 1 -2.3,6.21 c -0.43,0.36 -0.91,0.66 -1.36,1 a 2.53,2.53 0 0 0 -1.39,0 c -5.16,1.62 -10.1,4.83 -12.47,9.74 a 19,19 0 0 0 -1.24,3.48 l -0.28,0.43 a 50,50 0 0 0 -6.66,16 c -0.65,2.91 -1.06,5.93 -2.42,8.58 a 8.86,8.86 0 0 0 -0.79,1.75 17.47,17.47 0 0 0 -0.12,2.81 c -0.14,1.7 -1.13,3.21 -1.46,4.88 -0.2,1 -0.16,2 -0.33,3 a 30.59,30.59 0 0 1 -1.87,5 c -1.06,2.94 -1.05,6.17 -1.84,9.2 a 3.23,3.23 0 0 1 -0.62,1.37 7.05,7.05 0 0 1 -2.08,1.12 4.59,4.59 0 0 0 -2.09,3.13 13.77,13.77 0 0 0 -0.07,3.9 l 0.39,5.07 -5.68,1.72 -9.32,2.85 a 27.74,27.74 0 0 0 -7.74,3.27 14.23,14.23 0 0 0 -4.88,5.92 29.82,29.82 0 0 0 -1.81,7.73 117.42,117.42 0 0 1 -4.79,21.8 c -0.19,0.54 -0.39,1.09 -0.59,1.63 v 0 l -0.63,1.59 c -0.05,0.11 -0.1,0.22 -0.14,0.33 l -0.54,1.27 c -0.24,0.54 -0.49,1.07 -0.75,1.6 l 21.83,7.28 c 0,0.26 0.05,0.54 0.09,0.85 0.76,5.36 0.39,10.8 1.09,16.17 a 10.45,10.45 0 0 0 0.61,2.61 3.72,3.72 0 0 0 -1.15,1.82 9.68,9.68 0 0 0 -0.11,3.48 c 0.25,2.74 0.49,5.48 0.74,8.22 a 12.72,12.72 0 0 1 0,3 c -0.27,1.81 -1.31,3.4 -1.88,5.13 -0.57,1.73 -0.54,3.95 0.89,5 a 3.54,3.54 0 0 0 3.44,0.31 8.08,8.08 0 0 0 2.85,-2.19 c 4.39,-4.88 6.36,-11.47 9.77,-17.1 a 32.24,32.24 0 0 0 2.34,-4.07 c 0.47,-1.09 0.77,-2.25 1.15,-3.38 a 34.71,34.71 0 0 1 1.88,-4.39 c 0.41,-0.81 2,-2.76 1.64,-3.66 -0.56,-1.55 -6.55,-2.91 -8,-3.39 a 4,4 0 0 0 -2.93,-0.13 1.84,1.84 0 0 0 -0.4,0.26 l -0.51,-6.61 c 0.89,-0.08 1.77,-0.19 2.64,-0.34 q 0,-1.86 -0.09,-3.75 c 0,-1.14 -0.05,-2.29 -0.08,-3.44 -0.06,-2.8 -0.12,-5.6 -0.19,-8.35 a 46.26,46.26 0 0 0 -0.31,-4.85 c -0.34,-2.45 -1.09,-4.85 -1.33,-7.32 a 2.79,2.79 0 0 1 1.24,-0.56 v 0 a 8.78,8.78 0 0 1 2.12,-0.08 h 0.56 a 18.16,18.16 0 0 0 8.83,-2.44 c 2.75,-1.43 5.3,-3.22 8,-4.69 l 1,-0.53 0.38,-0.19 0.64,-0.32 0.53,-0.25 0.12,-0.06 c 1.59,-0.76 3.2,-1.5 4.74,-2.33 a 5.36,5.36 0 0 0 0.34,0.49 3.19,3.19 0 0 0 3.33,1.21 c -1.89,4.55 -4.11,8.95 -4.67,13.87 -0.82,7.11 2,14 4.81,20.62 l 8.89,21 c 1,2.32 2.29,4.92 4.72,5.47 a 7,7 0 0 0 4.46,-0.89 c 4.07,-1.94 7.73,-4.72 11.46,-7.32 l 0.15,0.12 c 3.37,2.66 5.48,6.37 7.81,9.92 l 6.23,10.24 a 3.09,3.09 0 0 0 0.25,1.5 8.73,8.73 0 0 0 1.75,2.27 29.49,29.49 0 0 1 7.5,15.35 9.43,9.43 0 0 0 1.24,4.18 c 1.67,2.32 5.23,2.17 7.74,0.85 a 4.88,4.88 0 0 0 1.94,-1.6 6.32,6.32 0 0 0 0.78,-2.42 33.39,33.39 0 0 0 0.75,-6.44 c -0.04,-3.93 -1.55,-7.84 -2.27,-11.87 z M 431.31,117.33 a 14.62,14.62 0 0 0 1.26,-0.93 19.34,19.34 0 0 1 -4,6.86 v 0 c -0.42,0.46 -0.87,0.89 -1.33,1.31 v -0.32 c -0.05,-1 0,-2.11 0,-3.17 a 13.38,13.38 0 0 0 4.07,-3.75 z m -35.31,78.91 0.06,-0.19 a 3.82,3.82 0 0 1 0.91,0.93 3.78,3.78 0 0 0 0.14,3.39 c 0.52,0.88 1.46,1.7 1.26,2.71 -0.2,1.01 -1.48,1.41 -2.52,1.58 -1.37,0.22 -2.72,0.47 -4.07,0.74 0,0 0,0 0,-0.07 A 10.5,10.5 0 0 0 391.33,202 c 2.33,-1 3.77,-3.38 4.67,-5.76 z"
       transform="translate(-30.47,-58.05)"
       fill="url(#a555fdc1-543d-4707-ad9f-6ab871925265)"
       id="path66"
       style="fill:url(#linearGradient2400)" />
    <path
       d="m 437.62,79.82 a 11.87,11.87 0 1 0 -22,-7.49 11.63,11.63 0 0 0 0.11,3.59 19,19 0 0 0 -10.84,18.13 19.08,19.08 0 1 0 35.11,10.41 c 0,-0.31 0,-0.61 0,-0.91 a 19.09,19.09 0 0 0 -2.33,-23.73 z"
       transform="translate(-30.47,-58.05)"
       fill="#46455b"
       id="path68" />
    <g
       opacity="0.1"
       id="g76">
      <path
         d="m 415.59,72.91 0.16,-0.09 a 6.17,6.17 0 0 1 -0.09,-0.62 0.59,0.59 0 0 0 0,0.13 5.44,5.44 0 0 0 -0.07,0.58 z"
         transform="translate(-30.47,-58.05)"
         id="path70" />
      <path
         d="m 442.9,92.33 a 19,19 0 0 1 -2.95,8.13 c 0,0.3 0,0.6 0,0.9 a 19.08,19.08 0 0 1 -38.09,1.54 c 0,0.52 -0.07,1 -0.07,1.56 a 19.08,19.08 0 0 0 38.16,0 c 0,-0.31 0,-0.61 0,-0.91 a 18.89,18.89 0 0 0 2.95,-8.13 18.41,18.41 0 0 0 0.07,-3.85 c 0.03,0.25 -0.03,0.51 -0.07,0.76 z"
         transform="translate(-30.47,-58.05)"
         id="path72" />
      <path
         d="m 439.19,72.19 a 11.91,11.91 0 0 1 -1.57,4.54 c 0.34,0.34 0.65,0.7 1,1.06 a 11.83,11.83 0 0 0 0.62,-2.61 11.5,11.5 0 0 0 -0.05,-2.99 z"
         transform="translate(-30.47,-58.05)"
         id="path74" />
    </g>
    <path
       d="m 360.74,284.52 a 8.65,8.65 0 0 0 0.87,3.12 3.42,3.42 0 0 0 2.53,1.85 5.1,5.1 0 0 0 2.79,-0.81 c 1.69,-0.89 3.46,-1.92 4.34,-3.62 0.88,-1.7 0.74,-3.6 0.59,-5.45 l -1.14,-14.55 c -2.74,-0.08 -5.5,-0.08 -8.25,0.07 -2.75,0.15 -3.2,0.79 -2.82,3.45 0.75,5.28 0.35,10.65 1.09,15.94 z"
       transform="translate(-30.47,-58.05)"
       fill="#fbbebe"
       id="path78" />
    <path
       d="m 441.36,294.35 6.53,10.56 a 2.6,2.6 0 0 0 1.43,1.34 2.17,2.17 0 0 0 1.36,-0.24 17,17 0 0 0 5.45,-4.52 10,10 0 0 0 2.62,-4 5.11,5.11 0 0 0 -1.3,-4.81 15.37,15.37 0 0 0 -2.45,-1.78 c -5.17,-3.49 -7.5,-10.11 -12.6,-13.69 a 2,2 0 0 0 -1,-0.45 2.2,2.2 0 0 0 -1.06,0.36 l -7,3.82 c -3,1.65 -2.07,1.85 0.23,3.63 3.35,2.62 5.43,6.28 7.79,9.78 z"
       transform="translate(-30.47,-58.05)"
       fill="#fbbebe"
       id="path80" />
    <path
       d="M 374.93,276.1 A 4,4 0 0 0 372,276 a 3.22,3.22 0 0 0 -1.53,2.41 c -0.18,1 -0.16,2 -0.43,2.93 a 10,10 0 0 1 -2.85,4 4.26,4.26 0 0 1 -1.79,1.25 c -0.95,0.24 -1.95,-0.2 -2.91,0 a 3.18,3.18 0 0 0 -2.29,2.34 9.18,9.18 0 0 0 -0.11,3.43 l 0.74,8.1 a 12.39,12.39 0 0 1 0,3 c -0.27,1.79 -1.31,3.35 -1.88,5.06 -0.57,1.71 -0.55,3.89 0.89,5 a 3.61,3.61 0 0 0 3.45,0.3 8,8 0 0 0 2.85,-2.16 c 4.4,-4.8 6.37,-11.31 9.79,-16.85 a 32.36,32.36 0 0 0 2.34,-4 c 0.47,-1.08 0.77,-2.22 1.15,-3.33 a 33.19,33.19 0 0 1 1.89,-4.33 c 0.4,-0.8 2,-2.72 1.64,-3.61 -0.53,-1.62 -6.54,-2.97 -8.02,-3.44 z"
       transform="translate(-30.47,-58.05)"
       fill="#46455b"
       id="path82" />
    <path
       d="m 454.34,298.47 a 8.42,8.42 0 0 1 -4.64,4 4.27,4.27 0 0 0 -1.57,0.81 2.44,2.44 0 0 0 -0.28,2.67 8.63,8.63 0 0 0 1.76,2.24 28.93,28.93 0 0 1 7.5,15.13 9.41,9.41 0 0 0 1.25,4.13 c 1.67,2.29 5.24,2.14 7.76,0.83 a 5,5 0 0 0 1.94,-1.57 6.18,6.18 0 0 0 0.78,-2.39 32.48,32.48 0 0 0 0.75,-6.35 c 0,-4 -1.56,-7.89 -2.28,-11.85 -1,-5.63 -0.52,-11.7 -3.14,-16.78 a 3.7,3.7 0 0 0 -1.17,-1.54 4.21,4.21 0 0 0 -2.14,-0.48 c -2.36,-0.09 -4.74,-0.11 -7.11,-0.06 -0.66,0 -1.44,0.1 -1.78,0.67 a 2.06,2.06 0 0 0 0.26,1.93 c 1.45,2.87 3.83,5.14 2.11,8.61 z"
       transform="translate(-30.47,-58.05)"
       fill="#46455b"
       id="path84" />
    <path
       d="m 398.08,197.57 a 3.67,3.67 0 0 0 -0.86,4.62 c 0.53,0.87 1.47,1.68 1.26,2.68 -0.21,1 -1.48,1.38 -2.52,1.55 -9.18,1.46 -18.12,4.15 -27,6.83 l -9.34,2.81 a 27.87,27.87 0 0 0 -7.76,3.22 14,14 0 0 0 -4.88,5.83 29,29 0 0 0 -1.82,7.62 c -1.4,9.55 -3.19,19.18 -7.45,27.84 l 22.63,7.43 a 33.26,33.26 0 0 0 6.79,1.7 24.86,24.86 0 0 0 6.61,-0.32 c -0.14,-5.05 -0.23,-10.26 -0.37,-15.32 a 42.31,42.31 0 0 0 -0.31,-4.78 c -0.34,-2.42 -1.09,-4.78 -1.33,-7.22 1,-0.86 2.57,-0.64 3.92,-0.61 a 18.55,18.55 0 0 0 8.86,-2.39 c 2.74,-1.42 5.3,-3.18 8,-4.63 4.55,-2.41 9.73,-4 13.21,-7.83 -1.77,6.75 -6,12.63 -6.77,19.56 -0.77,6.93 2,13.85 4.83,20.32 l 8.91,20.68 c 1,2.28 2.29,4.85 4.72,5.39 a 7.15,7.15 0 0 0 4.47,-0.88 c 8.2,-3.84 14.76,-11.07 23.52,-13.37 -0.66,-4.34 -4.08,-7.93 -6,-11.86 -1.64,-3.31 -2.17,-7.05 -3.26,-10.58 -1.09,-3.53 -3,-7.12 -6.26,-8.8 -1.57,-0.79 -3.68,-1.49 -3.82,-3.24 a 3.58,3.58 0 0 1 0.35,-1.63 21.07,21.07 0 0 1 5.33,-7.75 2.49,2.49 0 0 0 0.7,-0.88 2.79,2.79 0 0 0 0.05,-1 c -0.17,-2.82 1.34,-5.45 3,-7.72 1.66,-2.27 3.63,-4.42 4.58,-7.07 1.63,-4.57 0,-9.59 -1.6,-14.16 a 14.26,14.26 0 0 0 -2.68,-5.19 c -2.1,-2.24 -5.36,-2.89 -8.42,-3.23 -9.85,-1.12 -21.44,-3.71 -29.29,2.38 z"
       transform="translate(-30.47,-58.05)"
       fill="#46455b"
       id="path86" />
    <g
       opacity="0.1"
       id="g98">
      <path
         d="m 435.52,217.58 c -1.68,2.27 -3.19,4.9 -3,7.72 a 2.79,2.79 0 0 1 -0.05,1 2.49,2.49 0 0 1 -0.7,0.88 21.07,21.07 0 0 0 -5.33,7.75 3.6,3.6 0 0 0 -0.35,1.63 3.13,3.13 0 0 0 2,2.34 21,21 0 0 1 3.7,-4.5 2.49,2.49 0 0 0 0.7,-0.88 2.79,2.79 0 0 0 0.05,-1 c -0.17,-2.82 1.34,-5.45 3,-7.72 1.66,-2.27 3.63,-4.42 4.58,-7.07 a 14.68,14.68 0 0 0 0.24,-8 q -0.1,0.39 -0.24,0.78 c -0.97,2.65 -2.91,4.81 -4.6,7.07 z"
         transform="translate(-30.47,-58.05)"
         id="path88" />
      <path
         d="m 397.05,198.94 a 1.89,1.89 0 0 0 1.43,-1.29 1.29,1.29 0 0 0 0,-0.39 l -0.43,0.31 a 3.48,3.48 0 0 0 -1,1.37 z"
         transform="translate(-30.47,-58.05)"
         id="path90" />
      <path
         d="m 367.13,262.48 a 33.26,33.26 0 0 1 -6.79,-1.7 l -20,-6.56 a 57.52,57.52 0 0 1 -2.65,6.35 l 22.65,7.43 a 33.26,33.26 0 0 0 6.79,1.7 24.86,24.86 0 0 0 6.61,-0.32 c -0.07,-2.37 -0.12,-4.78 -0.18,-7.19 a 24.75,24.75 0 0 1 -6.43,0.29 z"
         transform="translate(-30.47,-58.05)"
         id="path92" />
      <path
         d="m 421.91,284.45 a 7.15,7.15 0 0 1 -4.47,0.88 c -2.43,-0.54 -3.74,-3.11 -4.72,-5.39 l -8.91,-20.68 c -2,-4.55 -3.95,-9.28 -4.67,-14.13 -0.06,0.34 -0.11,0.68 -0.16,1 -0.81,7 2,13.85 4.83,20.32 l 8.91,20.68 c 1,2.28 2.29,4.85 4.72,5.39 a 7.15,7.15 0 0 0 4.47,-0.88 c 8.2,-3.84 14.76,-11.07 23.52,-13.37 a 17,17 0 0 0 -2.69,-6.33 c -7.46,2.93 -13.49,9.06 -20.83,12.51 z"
         transform="translate(-30.47,-58.05)"
         id="path94" />
      <path
         d="m 405.75,219.38 c -3.48,3.8 -8.66,5.42 -13.21,7.83 -2.73,1.45 -5.29,3.21 -8,4.63 a 18.56,18.56 0 0 1 -8.86,2.4 c -1.35,0 -2.87,-0.26 -3.92,0.6 0.22,2.25 0.87,4.44 1.24,6.67 a 12,12 0 0 1 2.68,-0.06 18.55,18.55 0 0 0 8.86,-2.39 c 2.74,-1.42 5.3,-3.18 8,-4.63 3,-1.59 6.27,-2.83 9.15,-4.59 a 78.87,78.87 0 0 0 4.06,-10.46 z"
         transform="translate(-30.47,-58.05)"
         id="path96" />
    </g>
    <path
       d="m 413.69,126 a 7.39,7.39 0 0 1 -2.3,6.11 c -0.55,0.47 -1.2,0.82 -1.73,1.31 a 4.69,4.69 0 0 0 0.68,7.13 c 1.8,1.1 4.09,0.8 6.17,0.44 a 35.64,35.64 0 0 0 8.1,-2.11 13.39,13.39 0 0 0 6.38,-5.23 7.86,7.86 0 0 1 -3.63,-6.5 c -0.14,-2.59 0.57,-5.53 -1.07,-7.54 -1.64,-2.01 -4.55,-1.92 -7,-1.26 -1.21,0.34 -2.38,0.8 -3.59,1.13 -0.62,0.16 -2.64,0.17 -3,0.62 -0.7,0.82 0.92,4.59 0.99,5.9 z"
       transform="translate(-30.47,-58.05)"
       fill="#fbbebe"
       id="path100" />
    <path
       d="m 413.69,126 a 7.39,7.39 0 0 1 -2.3,6.11 c -0.55,0.47 -1.2,0.82 -1.73,1.31 a 4.69,4.69 0 0 0 0.68,7.13 c 1.8,1.1 4.09,0.8 6.17,0.44 a 35.64,35.64 0 0 0 8.1,-2.11 13.39,13.39 0 0 0 6.38,-5.23 7.86,7.86 0 0 1 -3.63,-6.5 c -0.14,-2.59 0.57,-5.53 -1.07,-7.54 -1.64,-2.01 -4.55,-1.92 -7,-1.26 -1.21,0.34 -2.38,0.8 -3.59,1.13 -0.62,0.16 -2.64,0.17 -3,0.62 -0.7,0.82 0.92,4.59 0.99,5.9 z"
       transform="translate(-30.47,-58.05)"
       opacity="0.1"
       id="path102" />
    <circle
       cx="390.17001"
       cy="54.400002"
       r="13.41"
       fill="#fbbebe"
       id="circle104" />
    <path
       d="m 378.3,215.31 a 9.08,9.08 0 0 1 -1.26,3 13.88,13.88 0 0 0 -1.6,9.15 9.63,9.63 0 0 0 5.63,7.12 3.85,3.85 0 0 0 3.85,-0.24 c -1.79,-2.33 -1.89,-5.51 -1.78,-8.45 a 2.83,2.83 0 0 1 0.37,-1.57 1,1 0 0 1 1.42,-0.25 12.62,12.62 0 0 0 1.05,5.39 c 0.28,0.65 0.76,1.37 1.48,1.35 1,0 1.29,-1.41 1.25,-2.43 -0.15,-4.16 -0.36,-8.49 -2.36,-12.13 a 14.35,14.35 0 0 1 -2,-4.09 2.42,2.42 0 0 0 -0.52,-1.43 1.79,1.79 0 0 0 -0.75,-0.35 c -1.15,-0.33 -3.89,-1.34 -4.84,-0.26 -0.95,1.08 0.24,3.81 0.06,5.19 z"
       transform="translate(-30.47,-58.05)"
       fill="#fbbebe"
       id="path106" />
    <path
       d="m 398.21,144.08 c -1.54,-0.18 -2.75,1.23 -3.59,2.53 a 48.9,48.9 0 0 0 -6.68,15.82 c -0.65,2.87 -1.05,5.85 -2.42,8.46 a 8.62,8.62 0 0 0 -0.79,1.72 18.31,18.31 0 0 0 -0.12,2.78 c -0.14,1.67 -1.13,3.16 -1.46,4.81 -0.2,1 -0.16,2 -0.34,3 -0.3,1.72 -1.25,3.26 -1.86,4.91 -1.07,2.9 -1.06,6.08 -1.85,9.07 a 3.11,3.11 0 0 1 -0.62,1.34 c -0.53,0.59 -1.39,0.73 -2.08,1.11 a 4.52,4.52 0 0 0 -2.1,3.09 13.34,13.34 0 0 0 -0.07,3.84 l 0.62,7.93 c 0.63,-0.27 1,-1 1.58,-1.43 1,-0.8 2.39,-0.62 3.63,-0.4 l 1.81,0.33 c 1.85,0.33 3.86,0.76 5,2.22 0.94,-1.48 0.41,-3.65 1.85,-4.63 0.47,-0.32 1.06,-0.42 1.55,-0.7 a 3.47,3.47 0 0 0 1.58,-2.78 10.26,10.26 0 0 0 -0.45,-3.29 c 2.32,-1 3.76,-3.33 4.67,-5.68 a 47.52,47.52 0 0 0 2.16,-8.76 c 2.09,-11.79 4,-23.66 4.2,-35.63 a 17.13,17.13 0 0 0 -0.65,-5.93 c -0.62,-1.9 -1.58,-3.51 -3.57,-3.73 z"
       transform="translate(-30.47,-58.05)"
       fill="#f1592a"
       id="path108" />
    <path
       d="m 398.21,144.08 c -1.54,-0.18 -2.75,1.23 -3.59,2.53 a 48.9,48.9 0 0 0 -6.68,15.82 c -0.65,2.87 -1.05,5.85 -2.42,8.46 a 8.62,8.62 0 0 0 -0.79,1.72 18.31,18.31 0 0 0 -0.12,2.78 c -0.14,1.67 -1.13,3.16 -1.46,4.81 -0.2,1 -0.16,2 -0.34,3 -0.3,1.72 -1.25,3.26 -1.86,4.91 -1.07,2.9 -1.06,6.08 -1.85,9.07 a 3.11,3.11 0 0 1 -0.62,1.34 c -0.53,0.59 -1.39,0.73 -2.08,1.11 a 4.52,4.52 0 0 0 -2.1,3.09 13.34,13.34 0 0 0 -0.07,3.84 l 0.62,7.93 c 0.63,-0.27 1,-1 1.58,-1.43 1,-0.8 2.39,-0.62 3.63,-0.4 l 1.81,0.33 c 1.85,0.33 3.86,0.76 5,2.22 0.94,-1.48 0.41,-3.65 1.85,-4.63 0.47,-0.32 1.06,-0.42 1.55,-0.7 a 3.47,3.47 0 0 0 1.58,-2.78 10.26,10.26 0 0 0 -0.45,-3.29 c 2.32,-1 3.76,-3.33 4.67,-5.68 a 47.52,47.52 0 0 0 2.16,-8.76 c 2.09,-11.79 4,-23.66 4.2,-35.63 a 17.13,17.13 0 0 0 -0.65,-5.93 c -0.62,-1.9 -1.58,-3.51 -3.57,-3.73 z"
       transform="translate(-30.47,-58.05)"
       opacity="0.1"
       id="path110" />
    <path
       d="m 432,131.24 a 16.92,16.92 0 0 1 -8.15,4.74 50,50 0 0 1 -9.45,1.39 6,6 0 0 1 -2.92,-0.25 2,2 0 0 1 -1.21,-2.39 2.86,2.86 0 0 0 0.35,-0.93 c 0,-0.82 -1.22,-0.89 -2,-0.65 -5.16,1.6 -10.11,4.76 -12.49,9.61 a 29,29 0 0 0 -2.22,8.84 c -1.12,8 -2.24,16.07 -0.74,24 0.81,4.21 2.35,8.3 2.44,12.58 0.06,2.4 -0.35,4.79 -0.33,7.19 a 3.63,3.63 0 0 0 0.64,2.37 c 0.37,0.43 0.93,0.7 1.19,1.21 0.43,0.84 -0.15,2 0.42,2.77 0.71,0.94 2.17,0.26 3.14,-0.4 a 24.94,24.94 0 0 1 16.59,-4.17 c 7,0.75 14,4.5 20.82,2.62 a 9.53,9.53 0 0 1 -0.9,-1.62 c -3.4,-11.16 -3.17,-23.65 1.92,-34.15 1.73,-3.59 4,-7 4.7,-10.94 a 21,21 0 0 0 0.07,-5.55 23,23 0 0 0 -3.15,-10.19 c -1.93,-3.07 -5.14,-5.72 -8.72,-6.08 z"
       transform="translate(-30.47,-58.05)"
       fill="#f1592a"
       id="path112" />
    <path
       d="m 399.57,218.76 a 12.37,12.37 0 0 0 -0.77,4.57 27.59,27.59 0 0 0 0.22,4.45 7.12,7.12 0 0 0 1.31,3.5 3.19,3.19 0 0 0 3.34,1.19 3.5,3.5 0 0 0 2,-2.24 21.33,21.33 0 0 0 0.64,-3.06 c 0.58,-3 2.18,-5.9 2.21,-9 a 2.61,2.61 0 0 0 -0.17,-1.08 c -0.58,-1.27 -3.43,-2.7 -4.82,-2.49 -1.72,0.27 -3.32,2.69 -3.96,4.16 z"
       transform="translate(-30.47,-58.05)"
       fill="#fbbebe"
       id="path114" />
    <path
       d="m 438.26,142.56 c -0.26,2.67 2.32,4.68 3.34,7.15 a 12.23,12.23 0 0 1 0.7,3.6 c 0.72,8.53 0.16,17.1 -0.4,25.63 a 47.85,47.85 0 0 1 -1,8.45 c -1.44,5.83 -5,10.89 -8.45,15.79 a 13.4,13.4 0 0 1 -1.81,2.22 13.57,13.57 0 0 1 -3.36,2 l -11.9,5.77 a 23,23 0 0 0 -4.23,2.43 11.54,11.54 0 0 0 -3.5,4.56 c -2.31,-1.18 -4.71,-2.24 -7,-3.42 -0.54,-0.28 -1.15,-0.64 -1.24,-1.24 -0.12,-0.8 0.72,-1.37 1.3,-2 1.08,-1.07 1.41,-2.66 2,-4.06 1.92,-4.6 6.73,-7.54 8.47,-12.2 0.67,-1.79 0.87,-3.82 2.06,-5.32 a 13.18,13.18 0 0 1 2.27,-2 38.27,38.27 0 0 0 5,-5.15 8.75,8.75 0 0 0 1.65,-2.41 11.92,11.92 0 0 0 0.39,-4.22 c 0.09,-4.66 2.2,-9 3.49,-13.48 1.21,-4.21 1.72,-8.63 3.31,-12.72 1.59,-4.09 4.65,-8.28 8.91,-9.38 z"
       transform="translate(-30.47,-58.05)"
       opacity="0.1"
       id="path116" />
    <path
       d="m 439.81,142.56 c -0.26,2.67 2.31,4.68 3.33,7.15 a 12.24,12.24 0 0 1 0.71,3.6 c 0.71,8.53 0.16,17.1 -0.4,25.63 a 47.85,47.85 0 0 1 -1.05,8.45 c -1.44,5.83 -5,10.89 -8.45,15.79 a 13.4,13.4 0 0 1 -1.81,2.22 13.57,13.57 0 0 1 -3.36,2 l -11.91,5.77 a 23.66,23.66 0 0 0 -4.23,2.43 11.63,11.63 0 0 0 -3.5,4.56 c -2.31,-1.18 -4.7,-2.24 -7,-3.42 -0.54,-0.28 -1.15,-0.64 -1.24,-1.24 -0.13,-0.8 0.71,-1.37 1.29,-2 1.09,-1.07 1.42,-2.66 2,-4.06 1.91,-4.6 6.73,-7.54 8.47,-12.2 0.67,-1.79 0.87,-3.82 2.06,-5.32 a 12.47,12.47 0 0 1 2.27,-2 38.27,38.27 0 0 0 5,-5.15 8.75,8.75 0 0 0 1.65,-2.41 12.16,12.16 0 0 0 0.39,-4.22 c 0.09,-4.66 2.19,-9 3.48,-13.48 1.22,-4.21 1.72,-8.63 3.31,-12.72 1.59,-4.09 4.75,-8.28 8.99,-9.38 z"
       transform="translate(-30.47,-58.05)"
       fill="#f1592a"
       id="path118" />
    <path
       d="m 427.28,91.72 a 19,19 0 0 0 -11.9,2.47 c 0.53,0 1.06,0 1.59,0.12 a 19.08,19.08 0 0 1 7.33,35.42 19.08,19.08 0 0 0 3,-38 z"
       transform="translate(-30.47,-58.05)"
       fill="#46455b"
       id="path120" />
    <path
       d="m 433.15,102.33 a 8.69,8.69 0 0 1 0.15,6.68 c -0.09,-0.27 -0.19,-0.54 -0.31,-0.81 -2.36,-5.25 -9.62,-7.42 -16.23,-4.85 a 13.25,13.25 0 0 0 -7.83,7.47 c -1.68,-5.08 1.73,-10.9 8,-13.34 6.6,-2.57 13.86,-0.4 16.22,4.85 z"
       transform="translate(-30.47,-58.05)"
       fill="#46455b"
       id="path122" />
    <g
       opacity="0.1"
       id="g132">
      <path
         d="m 433.19,108.6 a 19.09,19.09 0 0 0 -12.75,-16.46 18.93,18.93 0 0 0 -5.06,2 c 0.53,0 1.06,0 1.59,0.12 a 19.07,19.07 0 0 1 16.22,14.34 z"
         transform="translate(-30.47,-58.05)"
         id="path124" />
      <path
         d="m 436.28,94.67 a 19.11,19.11 0 0 0 -12.75,-16.46 19.29,19.29 0 0 0 -5.06,2.06 c 0.53,0 1.06,0 1.6,0.12 a 19.06,19.06 0 0 1 16.21,14.28 z"
         transform="translate(-30.47,-58.05)"
         id="path126" />
      <path
         d="m 436.36,73.88 a 11.51,11.51 0 0 0 -7.69,-9.88 11.48,11.48 0 0 0 -3.06,1.23 c 0.32,0 0.64,0 1,0.08 a 11.5,11.5 0 0 1 9.75,8.57 z"
         transform="translate(-30.47,-58.05)"
         id="path128" />
      <path
         d="m 443.5,106 a 19.11,19.11 0 0 1 -14.78,20.16 19.2,19.2 0 0 1 -4.42,3.56 19.08,19.08 0 0 0 19.2,-23.72 z"
         transform="translate(-30.47,-58.05)"
         id="path130" />
    </g>
    <path
       d="m 846,94.65 a 7.55,7.55 0 0 0 1.37,-4.2 c 0,-9.12 -18.58,-16.5 -41.5,-16.5 -22.92,0 -41.5,7.38 -41.5,16.5 a 7.78,7.78 0 0 0 1.63,4.68 c -25.52,2.85 -42.71,8.19 -42.71,14.32 0,9.11 38,16.5 85,16.5 47,0 85,-7.39 85,-16.5 C 893.32,103 874,97.35 846,94.65 Z"
       transform="translate(-30.47,-58.05)"
       fill="#f1592a"
       opacity="0.1"
       id="path168" />
    <path
       d="m 337,112.65 a 7.55,7.55 0 0 0 1.37,-4.2 c 0,-9.12 -18.58,-16.5 -41.5,-16.5 -22.92,0 -41.5,7.38 -41.5,16.5 a 7.78,7.78 0 0 0 1.71,4.68 c -25.52,2.85 -42.71,8.19 -42.71,14.32 0,9.11 38.05,16.5 85,16.5 46.95,0 85,-7.39 85,-16.5 C 384.32,121 365,115.35 337,112.65 Z"
       transform="translate(-30.47,-58.05)"
       fill="#f1592a"
       opacity="0.1"
       id="path170" />
    <path
       d="m 628.74,98.79 c 2.33,-1.35 5.48,-0.06 7.08,2.12 1.6,2.18 2,5 2.45,7.62 0.89,5.92 1.54,12.71 -2.45,17.16 6.52,-19.77 25.27,-34.91 46,-37.12"
       transform="translate(-30.47,-58.05)"
       fill="none"
       stroke="#f1592a"
       stroke-miterlimit="10"
       stroke-width="3"
       opacity="0.1"
       id="path172" />
    <path
       d="m 295.21,199.77 c 1.5,-0.87 3.52,0 4.55,1.36 a 10.71,10.71 0 0 1 1.58,4.9 c 0.57,3.81 1,8.17 -1.57,11 a 35.83,35.83 0 0 1 29.55,-23.87"
       transform="translate(-30.47,-58.05)"
       fill="none"
       stroke="#f1592a"
       stroke-miterlimit="10"
       stroke-width="3"
       opacity="0.1"
       id="path174" />
    <path
       d="m 745.21,229.77 c 1.5,-0.87 3.52,0 4.55,1.36 a 10.71,10.71 0 0 1 1.58,4.9 c 0.57,3.81 1,8.17 -1.57,11 a 35.83,35.83 0 0 1 29.55,-23.87"
       transform="translate(-30.47,-58.05)"
       fill="none"
       stroke="#f1592a"
       stroke-miterlimit="10"
       stroke-width="3"
       opacity="0.1"
       id="path176" />
  </g>
  <sodipodi:namedview
     id="namedview185"
     pagecolor="#ffffff"
     bordercolor="#666666"
     borderopacity="1.0"
     inkscape:pageshadow="2"
     inkscape:pageopacity="0.0"
     inkscape:pagecheckerboard="0"
     showgrid="false"
     inkscape:zoom="0.64766253"
     inkscape:cx="686.31422"
     inkscape:cy="375.96741"
     inkscape:window-width="1920"
     inkscape:window-height="991"
     inkscape:window-x="-9"
     inkscape:window-y="-9"
     inkscape:window-maximized="1"
     inkscape:current-layer="f6ed740f-4c53-497f-bfef-ebd7a0ab3453" />
  <defs
     id="defs10">
    <linearGradient
       inkscape:collect="always"
       id="linearGradient1137">
      <stop
         style="stop-color:#807df1;stop-opacity:1"
         offset="0"
         id="stop1133" />
      <stop
         style="stop-color:#ea5a34;stop-opacity:0.94117647;"
         offset="0.90800321"
         id="stop1431" />
      <stop
         style="stop-color:#44190c;stop-opacity:0.44855967"
         offset="1"
         id="stop1135" />
    </linearGradient>
    <linearGradient
       id="a555fdc1-543d-4707-ad9f-6ab871925265"
       x1="403.53"
       y1="329.2"
       x2="403.53"
       y2="58.05"
       gradientUnits="userSpaceOnUse">
      <stop
         offset="0"
         stop-color="gray"
         stop-opacity="0.25"
         id="stop2" />
      <stop
         offset="0.54"
         stop-color="gray"
         stop-opacity="0.12"
         id="stop4" />
      <stop
         offset="1"
         stop-color="gray"
         stop-opacity="0.1"
         id="stop6" />
    </linearGradient>
    <linearGradient
       id="b5cd2d76-14a4-40b4-8065-15ea8dd506d0"
       x1="517.81"
       y1="472.14"
       x2="647.31"
       y2="472.14"
       gradientTransform="translate(-58.47 81.57) rotate(-5.9)"
       xlink:href="#a555fdc1-543d-4707-ad9f-6ab871925265" />
    <linearGradient
       inkscape:collect="always"
       xlink:href="#linearGradient1137"
       id="linearGradient1139"
       x1="344.90344"
       y1="495.85489"
       x2="663.28802"
       y2="129.2708"
       gradientUnits="userSpaceOnUse" />
    <linearGradient
       inkscape:collect="always"
       xlink:href="#a555fdc1-543d-4707-ad9f-6ab871925265"
       id="linearGradient2400"
       gradientUnits="userSpaceOnUse"
       x1="403.53"
       y1="329.2"
       x2="403.53"
       y2="58.05" />
  </defs>
  <title
     id="title12">going up</title>
  <metadata
     id="metadata1002">
    <rdf:RDF>
      <cc:Work
         rdf:about="">
        <dc:title>going up</dc:title>
      </cc:Work>
    </rdf:RDF>
  </metadata>
</svg>
